<?xml version="1.0" encoding="utf-8"?>
<!-- Generator: Adobe Illustrator 22.0.0, SVG Export Plug-In . SVG Version: 6.00 Build 0)  -->
<svg version="1.1" id="Capa_1" xmlns="http://www.w3.org/2000/svg" xmlns:xlink="http://www.w3.org/1999/xlink" x="0px" y="0px"
	 viewBox="0 0 226.8 226.8" style="enable-background:new 0 0 226.8 226.8;" xml:space="preserve">
<style type="text/css">
	.st0{fill:#40C2CC;}
	.st1{fill:#41C2CC;}
	.st2{fill:#45C2CD;}
	.st3{fill:#44C2CD;}
</style>
<path class="st0" d="M162.2,114.2h-30.6c0-9.1-0.6-17.7,0.2-26.2c0.8-8.2,7.5-12.7,18-13.2c4.2-0.2,8.5,0,13.7,0
	c0-8.8,0.1-17.1-0.1-25.4c-0.4-1.3-1.4-2.3-2.6-2.7c-12.5-0.5-25-3.7-37.5,0.6c-15.8,5.4-26.7,19.5-27.1,36.4c-0.2,10,0,20,0,30.5
	H67.4v33.1h28v79.6C41.3,219.7-1.5,170.2,0,113C2,41.5,59-1.3,114.9,0c67.7,1.7,115.3,57.1,111.7,121.5
	c-3.4,59.6-51.9,100.8-94.8,104.7v-78.7h24.9c0.6-1.7,1.1-3.4,1.5-5.2C159.5,133.3,160.8,124.2,162.2,114.2z"/>
</svg>
