<svg id="Capa_1" data-name="Capa 1" xmlns="http://www.w3.org/2000/svg" viewBox="0 0 319.49 922.81"><defs><style>.cls-1{fill:#40c2cc;}.cls-2{fill:#41c2cc;}.cls-3{fill:#45c2cd;}.cls-4{fill:#44c2cd;}</style></defs><title>googlesvg</title><path class="cls-1" d="M184.07,480.45h-25c0-7.4-.5-14.39.14-21.27.63-6.65,6.15-10.26,14.74-10.69,3.47-.17,7,0,11.19,0,0-7.1.07-13.85-.1-20.6a3.13,3.13,0,0,0-2.16-2.17c-10.22-.4-20.42-3-30.68.45-12.9,4.37-21.85,15.83-22.15,29.51-.17,8.11,0,16.23,0,24.73H106.58v26.85h22.91v64.52c-44.28-5.75-79.24-45.9-78-92.29,1.57-58,48.19-92.71,93.9-91.59,55.32,1.36,94.3,46.34,91.35,98.56-2.74,48.31-42.48,81.75-77.52,84.93V507.56h20.37a36.81,36.81,0,0,0,1.2-4.22C181.89,496,182.91,488.62,184.07,480.45Z" transform="translate(-51.46 0)"/><path class="cls-2" d="M309.53,136.14H244.82V97.63h109.3c3.37,13.1,2.56,26.45.3,39.61-4.2,24.33-14.83,45.45-33.61,62.28-15.45,13.89-33.9,21.77-54.13,25.25-25.7,4.43-50.93,1.75-74.08-10.51-37.93-20.07-59.37-51.23-62.67-93.86C125.58,63.88,166.17,13,221.34,2.41c36.13-6.86,68.86.81,97.26,24.42a11.18,11.18,0,0,0,1.75,1.22L291.53,59.63c-5.65-3.66-10.07-7-14.9-9.64-23.93-13-55.33-8.91-76.71,7.9-32.3,25.39-37.27,78.62-1.45,109.89,24.71,21.59,67.76,22.62,92.49,1A56.15,56.15,0,0,0,309.53,136.14Z" transform="translate(-51.46 0)"/><path class="cls-3" d="M258.64,922.81c-20.34-1-40.85-.93-61-3.32-31.59-3.76-51.89-27.28-52.77-60.4q-1.37-50.54,0-101.15c1.06-36,26.19-60.51,62.55-61.33q50.28-1.14,100.58,0c36.55.84,61.58,25.48,62.39,61.47q1.14,51.55,0,103.16c-.71,33-25.63,57.78-58.7,59.18-17.63.75-35.31.14-53,.14Zm-93.43-71.08a83.13,83.13,0,0,0,5.34,26.16C177,893.82,191.64,899.6,207.31,900c33.49.88,67,.5,100.55.07a50.83,50.83,0,0,0,19.06-4.47c17.18-7.5,22.46-22.7,23.08-39.64q1.35-38.1,1.1-76.24a187.18,187.18,0,0,0-3.57-32c-2.84-15.59-13-24.89-28.37-28.16A132,132,0,0,0,295,716.64c-18.37-.44-36.76-.39-55.13-.18-11.76.12-23.62.1-35.28,1.51-24.5,3-36.2,14.28-38.21,38.65C165,773.8,164.35,837.34,165.21,851.73Z" transform="translate(-51.46 0)"/><path class="cls-4" d="M316.11,808.62c-1.3,32-28.55,57-60.86,55.7a58.31,58.31,0,0,1-56.12-55.38c-1.48-32.05,23.5-59.22,55.8-60.69s59.68,23.32,61.16,55.37C316.17,805.28,316.18,807,316.11,808.62Zm-20.42-.11c-.17-20.17-17.54-37.23-38-37.3-20.08-.07-37.87,17.56-37.74,37.56.11,20.42,17.21,37.46,37.63,37.57C278.18,846.34,295.82,828.88,295.69,808.51Z" transform="translate(-51.46 0)"/><path class="cls-4" d="M318.72,761.55a13.23,13.23,0,1,1,1.16,0C319.49,761.56,319.11,761.56,318.72,761.55Z" transform="translate(-51.46 0)"/></svg>