<svg id="Capa_1" data-name="Capa 1" xmlns="http://www.w3.org/2000/svg" viewBox="0 0 226.77 226.77"><defs><style>.cls-1{fill:#45c2cd;}.cls-2{fill:#44c2cd;}</style></defs><title>instagramsvg</title><path class="cls-1" d="M53.45,225.12C21.87,221.33,1.57,197.64.68,164.26q-1.36-50.91,0-101.9C1.74,26.06,26.88,1.4,63.23.57q50.28-1.14,100.59,0c36.54.85,61.58,25.67,62.38,61.93q1.14,51.93,0,103.93c-.71,33.19-25.62,58.21-58.69,59.63C149.87,226.8,73.62,227.53,53.45,225.12ZM21,156.85a84.05,84.05,0,0,0,5.33,26.36c6.48,16,21.09,21.87,36.76,22.28,33.5.88,67,.5,100.55.07a50.26,50.26,0,0,0,19.06-4.51c17.18-7.55,22.47-22.86,23.08-39.93q1.37-38.39,1.1-76.8a189,189,0,0,0-3.57-32.26C200.51,36.35,190.31,27,175,23.7a129.5,129.5,0,0,0-24.18-2.94c-18.37-.45-36.76-.4-55.13-.19-11.76.12-23.62.1-35.27,1.52C35.89,25.08,24.19,36.48,22.18,61,20.8,78.34,20.18,142.35,21,156.85Z"/><path class="cls-2" d="M171.93,113.42a58.48,58.48,0,1,1,0-5C172,110.06,172,111.74,171.93,113.42Zm-20.42-.11C151.34,93,134,75.8,113.49,75.73c-20.08-.07-37.87,17.69-37.74,37.84.11,20.57,17.21,37.74,37.64,37.85C134,151.42,151.64,133.83,151.51,113.31Z"/><path class="cls-2" d="M174.54,66a13.35,13.35,0,1,1,1.16,0C175.31,66,174.93,66,174.54,66Z"/></svg>