<svg id="Capa_1" data-name="Capa 1" xmlns="http://www.w3.org/2000/svg" viewBox="0 0 229.97 229.97"><defs><style>.cls-1{fill:#964399;stroke:#fff;stroke-miterlimit:10;stroke-width:4.14px;}.cls-2,.cls-3{fill:#fff;}.cls-3{font-size:12px;font-family:Poppins-Bold, Poppins;font-weight:700;}</style></defs><title>wave</title><path class="cls-1" d="M234,158.78a205.08,205.08,0,0,1-55.35,28.38,205.1,205.1,0,0,1-67.22,10.46c-18.48.62-50.2-1.06-83.66-17.93A166.66,166.66,0,0,1-4,158.78V-7.94H234Z"/><path class="cls-2" d="M119.36,56.27a13.16,13.16,0,0,1,5.77-1.16,14.12,14.12,0,0,1,14.2,14.09V82.83a4.78,4.78,0,0,1-1.48,3.52,5.19,5.19,0,0,1-7.26,0,4.78,4.78,0,0,1-1.48-3.52V69.2a4,4,0,0,0-1.18-2.91,3.9,3.9,0,0,0-5.59,0,4,4,0,0,0-1.18,2.91V82.83a4.82,4.82,0,0,1-1.48,3.52,5.2,5.2,0,0,1-7.27,0,4.78,4.78,0,0,1-1.48-3.52V60.11a4.78,4.78,0,0,1,1.48-3.52A4.92,4.92,0,0,1,116,55.11,4.55,4.55,0,0,1,119.36,56.27Z"/><path class="cls-2" d="M154.51,68.38,144.27,79.75s0-13.89,0-24.18A4.76,4.76,0,0,1,145.76,52,5.23,5.23,0,0,1,153,52a4.81,4.81,0,0,1,1.48,3.53c0,2.5,0,4.8,0,6.26v2.78a6.1,6.1,0,0,1-.28,1.72l-.88,1.51m1.16.54,9.41-11.77a5.2,5.2,0,0,1,7.29,0,4.81,4.81,0,0,1,1.47,3.52,4.73,4.73,0,0,1-1.43,3.48l-6.43,7.88,6.43,7.86a5,5,0,0,1,0,7,4.94,4.94,0,0,1-3.64,1.48,4.87,4.87,0,0,1-3.65-1.55l-5.43-6.81-4.68,5.9a5.2,5.2,0,0,1-8.05,1,4.81,4.81,0,0,1-1.47-3.52v-.78a3.57,3.57,0,0,1,.46-1.28c.24-.41.53-.87.87-1.37"/><path class="cls-2" d="M64.15,87.49h-6.4a7,7,0,0,1-5.12-2.08,6.8,6.8,0,0,1-2.08-5V42.06a6.8,6.8,0,0,1,2.08-5A7,7,0,0,1,57.75,35h6.4a25.45,25.45,0,0,1,18.68,7.71,25.27,25.27,0,0,1,7.71,18.52,25.27,25.27,0,0,1-7.71,18.53A25.45,25.45,0,0,1,64.15,87.49ZM65,49.1V73.41a10.72,10.72,0,0,0,7.66-3.53,12.28,12.28,0,0,0,0-17.25A10.72,10.72,0,0,0,65,49.1Z"/><path class="cls-2" d="M105.05,66.74c-.31,5.47-2.83,9.17-4.75,9.17s-4.5-3.75-4.75-9.33V59.66a4.1,4.1,0,0,1,1.37-3.07,5.1,5.1,0,0,1,6.76,0,4.1,4.1,0,0,1,1.37,3.07Zm-1.37,13.63a4.12,4.12,0,0,1,0,6.14,5.1,5.1,0,0,1-6.76,0,4.12,4.12,0,0,1,0-6.14,5.07,5.07,0,0,1,6.76,0Z"/><text class="cls-3" transform="translate(31 140.67)">Take Control of Your Money</text></svg>