<?xml version="1.0" encoding="utf-8"?>
<!-- Generator: Adobe Illustrator 22.0.0, SVG Export Plug-In . SVG Version: 6.00 Build 0)  -->
<svg version="1.1" id="Capa_1" xmlns="http://www.w3.org/2000/svg" xmlns:xlink="http://www.w3.org/1999/xlink" x="0px" y="0px"
	 viewBox="0 0 419 374" style="enable-background:new 0 0 419 374;" xml:space="preserve">
<style type="text/css">
	.st0{fill:#964399;}
	.st1{fill:#FFFFFF;}
	.st2{font-family:'QuicksandBold-Regular';}
	.st3{font-size:18.7726px;}
</style>
<path class="st0" d="M419,293.5c-15.3,11.1-37.5,25.4-66.2,38c-20.6,9-75.5,30.8-149.5,30.5c-31.3-0.2-86.6-0.9-147.4-31.5
	c-20.1-10.2-38.7-22.7-56-37V0h419V293.5z"/>
<g>
	<path class="st1" d="M224.7,118c3.6-1.6,7.5-2.3,11.4-2.3c15.3-0.2,27.8,12.2,28,27.5c0,0,0,0,0,0.2v26.8c0,2.7-1.1,5.2-3,6.9
		c-3.9,3.9-10.3,3.9-14.2,0c-1.9-1.9-3-4.4-3-6.9v-26.8c0-2.2-0.8-4.2-2.3-5.8c-3-3-7.8-3.1-10.8-0.2l-0.2,0.2
		c-1.6,1.6-2.3,3.6-2.3,5.8v26.8c0,2.7-1.1,5.2-3,6.9c-3.9,3.9-10.3,3.9-14.2,0c-1.9-1.9-3-4.4-3-6.9v-44.6c0-2.7,1.1-5.2,3-6.9
		c1.9-1.9,4.4-3,7-3C220.6,115.5,223,116.3,224.7,118z"/>
	<path class="st1" d="M294,138.8c-6.7,8.4-13.5,16.9-20.2,25.3c0,0,0-27.4,0-47.6c0-2.7,0.9-5.2,3-7c3.9-3.8,10.3-3.8,14.2,0
		c1.9,1.9,3,4.4,3,6.9c0,4.8,0,9.4,0,12.4c0,1.9,0,3.6,0,5.5 M293.8,141.6l18.5-23.2c3.9-3.9,10.3-3.9,14.4,0c1.9,1.9,3,4.4,2.8,6.9
		c0,2.5-0.9,5-2.8,6.9L314,147.7l12.7,15.5c3.8,3.8,3.8,10,0,13.8c-1.9,1.9-4.5,3-7.2,3s-5.3-1.1-7.2-3l-10.6-13.5l-9.2,11.6
		c-3,4.8-9.2,6.3-14.1,3.3c-0.6-0.5-1.3-0.8-1.7-1.4c-1.9-1.9-3-4.4-2.8-6.9v-1.6c0.2-0.9,0.5-1.7,0.9-2.5c0.5-0.8,1.1-1.7,1.7-2.7"
		/>
	<path class="st1" d="M116.1,179.3h-12.5c-3.8,0-7.4-1.4-10-4.1c-2.7-2.5-4.2-6.1-4.1-9.9V90c0-3.8,1.4-7.2,4.1-9.9s6.3-4.1,10-4.1
		h12.5c13.8-0.2,27.1,5.3,36.8,15.2c9.9,9.5,15.3,22.7,15.2,36.5c0.2,13.8-5.3,26.9-15.2,36.5C143.3,174,130,179.6,116.1,179.3z
		 M117.8,103.9v47.9c5.8-0.2,11.3-2.7,15-6.9c9.2-9.4,9.2-24.6,0-33.9C129.1,106.6,123.6,104.1,117.8,103.9z"/>
	<path class="st1" d="M196.7,138.5c-0.6,10.8-5.6,18-9.4,18s-8.9-7.4-9.4-18.3v-13.6c0-2.3,0.9-4.5,2.7-6.1c3.8-3.3,9.5-3.3,13.3,0
		c1.7,1.6,2.7,3.8,2.7,6.1L196.7,138.5z M193.9,165.4c3.3,3,3.6,8.1,0.6,11.4c-0.2,0.2-0.5,0.5-0.6,0.6c-3.8,3.3-9.5,3.3-13.3,0
		c-3.3-3-3.6-8.1-0.6-11.4c0.2-0.2,0.5-0.5,0.6-0.6C184.3,161.9,190.1,161.9,193.9,165.4z"/>
</g>
<text transform="matrix(1 0 0 1 82.6923 269.1757)" class="st1 st2 st3">Take Control of Your Money</text>
<text transform="matrix(1 0 0 1 171.4015 328.6885)" class="st1 st2 st3">Register</text>
</svg>
