<?xml version="1.0" encoding="utf-8"?>
<!-- Generator: Adobe Illustrator 22.0.0, SVG Export Plug-In . SVG Version: 6.00 Build 0)  -->
<svg version="1.1" id="Capa_1" xmlns="http://www.w3.org/2000/svg" xmlns:xlink="http://www.w3.org/1999/xlink" x="0px" y="0px"
	 viewBox="0 0 230 193" style="enable-background:new 0 0 230 193;" xml:space="preserve">
<style type="text/css">
	.st0{fill:#964399;}
	.st1{fill:#FFFFFF;}
	.st2{font-family:'QuicksandBold-Regular';}
	.st3{font-size:12px;}
</style>
<path class="st0" d="M234,146.8c-8.7,6.3-21.3,14.4-37.6,21.6c-11.7,5.1-42.9,17.5-84.9,17.3c-17.8-0.1-49.2-0.5-83.7-17.9
	C16.4,162,5.8,154.9-4,146.8V-19.9h238V146.8z"/>
<g>
	<path class="st1" d="M124.7,43.2c2.3-1,4.8-1.5,7.3-1.5c9.8-0.1,17.8,7.8,17.9,17.6c0,0,0,0,0,0.1v17.1c0,1.7-0.7,3.3-1.9,4.4
		c-2.5,2.5-6.6,2.5-9.1,0c-1.2-1.2-1.9-2.8-1.9-4.4V59.4c0-1.4-0.5-2.7-1.5-3.7c-1.9-1.9-5-2-6.9-0.1c0,0-0.1,0.1-0.1,0.1
		c-1,1-1.5,2.3-1.5,3.7v17.1c0,1.7-0.7,3.3-1.9,4.4c-2.5,2.5-6.6,2.5-9.1,0c-1.2-1.2-1.9-2.8-1.9-4.4V48c0-1.7,0.7-3.3,1.9-4.4
		c1.2-1.2,2.8-1.9,4.5-1.9C122.1,41.6,123.6,42.1,124.7,43.2z"/>
	<path class="st1" d="M169,56.5c-4.3,5.4-8.6,10.8-12.9,16.2c0,0,0-17.5,0-30.4c0-1.7,0.6-3.3,1.9-4.5c2.5-2.4,6.6-2.4,9.1,0
		c1.2,1.2,1.9,2.8,1.9,4.4c0,3.1,0,6,0,7.9c0,1.2,0,2.3,0,3.5 M168.9,58.3l11.8-14.8c2.5-2.5,6.6-2.5,9.2,0c1.2,1.2,1.9,2.8,1.8,4.4
		c0,1.6-0.6,3.2-1.8,4.4l-8.1,9.9l8.1,9.9c2.4,2.4,2.4,6.4,0,8.8c-1.2,1.2-2.9,1.9-4.6,1.9c-1.7,0-3.4-0.7-4.6-1.9l-6.8-8.6
		l-5.9,7.4c-1.9,3.1-5.9,4-9,2.1c-0.4-0.3-0.8-0.5-1.1-0.9c-1.2-1.2-1.9-2.8-1.8-4.4v-1c0.1-0.6,0.3-1.1,0.6-1.6
		c0.3-0.5,0.7-1.1,1.1-1.7"/>
	<path class="st1" d="M55.3,82.4h-8c-2.4,0-4.7-0.9-6.4-2.6c-1.7-1.6-2.7-3.9-2.6-6.3V25.3c0-2.4,0.9-4.6,2.6-6.3
		c1.7-1.7,4-2.6,6.4-2.6h8c8.8-0.1,17.3,3.4,23.5,9.7c6.3,6.1,9.8,14.5,9.7,23.3c0.1,8.8-3.4,17.2-9.7,23.3
		C72.7,79,64.2,82.6,55.3,82.4z M56.4,34.2v30.6c3.7-0.1,7.2-1.7,9.6-4.4c5.9-6,5.9-15.7,0-21.7C63.6,35.9,60.1,34.3,56.4,34.2z"/>
	<path class="st1" d="M106.8,56.3c-0.4,6.9-3.6,11.5-6,11.5s-5.7-4.7-6-11.7v-8.7c0-1.5,0.6-2.9,1.7-3.9c2.4-2.1,6.1-2.1,8.5,0
		c1.1,1,1.7,2.4,1.7,3.9L106.8,56.3z M105,73.5c2.1,1.9,2.3,5.2,0.4,7.3c-0.1,0.1-0.3,0.3-0.4,0.4c-2.4,2.1-6.1,2.1-8.5,0
		c-2.1-1.9-2.3-5.2-0.4-7.3c0.1-0.1,0.3-0.3,0.4-0.4C98.9,71.3,102.6,71.3,105,73.5z"/>
</g>
<text transform="matrix(1 0 0 1 33.9254 126.4573)" class="st1 st2 st3">Take Control of Your Money</text>
<text transform="matrix(1 0 0 1 98.5931 166.67)" class="st1 st2 st3">Login</text>
</svg>
